<?xml version="1.0" encoding="UTF-8"?>
<!DOCTYPE svg PUBLIC "-//W3C//DTD SVG 1.1//EN" "http://www.w3.org/Graphics/SVG/1.1/DTD/svg11.dtd">
<!-- Creator: CorelDRAW -->
<svg xmlns="http://www.w3.org/2000/svg" xml:space="preserve" width="37.4474mm" height="43.3466mm" version="1.1" style="shape-rendering:geometricPrecision; text-rendering:geometricPrecision; image-rendering:optimizeQuality; fill-rule:evenodd; clip-rule:evenodd"
viewBox="0 0 3744.74 4334.66"
 xmlns:xlink="http://www.w3.org/1999/xlink"
 xmlns:xodm="http://www.corel.com/coreldraw/odm/2003">
 <defs>
  <style type="text/css">
   <![CDATA[
    .fil1 {fill:#1B3864}
    .fil0 {fill:#E4641D}
   ]]>
  </style>
 </defs>
 <g id="Слой_x0020_1">
  <metadata id="CorelCorpID_0Corel-Layer"/>
  <g id="_105553213073440">
   <path class="fil0" d="M2019.49 3165.73l192.12 173.33 0 535.83 -192.12 -154.52 0 -554.64zm466.61 -177.54l0 -236.14 -181.43 0c-0.17,86.24 -0.3,173.08 -0.3,261.09l79.02 72.64 102.71 -97.59zm589.43 -894.59l159.38 0 -19.36 -37.63 -113.95 0 -26.07 37.63zm65.55 -330.1l39.77 46.52 0 -50.6 -39.77 -46.53 0 50.61zm0 -96.82l39.77 46.53 0 -56.48 -39.77 -46.53 0 56.48zm0 -102.7l39.77 46.53 0 -66.26 -19.28 -19.99 -20.49 19.99 0 19.73zm-664.12 3.27l538.9 0 0 28.24 -277.06 23.12 277.06 41.09 0 296.62 -538.9 0 0 -389.07zm339.93 -1227.37l283.88 0 0 427.17 -283.88 -207.12 0 -220.05zm927.85 1075.5l-687.74 0 187.73 -178.54 -115.42 -128.14 218.69 0 396.74 306.68zm-3744.74 -1.73l1146.1 0 0 -362.59 -682.69 0 -463.41 362.59zm1526.07 461.69l-135.41 -104.54 135.26 -104.71 65.35 -50.59 -382.05 0.25 -239.66 120.58 1.04 1456.28 623.33 0 1.33 -1.04 0 -0.89 -68.29 -52.71 -135.41 -104.54 135.27 -104.71 68.21 -52.81 0 -0.88 -68.29 -52.72 -135.42 -104.53 135.27 -104.72 68.21 -52.8 0 -0.89 -68.29 -52.72 -135.42 -104.53 135.27 -104.72 68.22 -52.8 0 -0.89 -68.29 -52.71 -135.42 -104.54 135.27 -104.71 68.21 -52.81 0 -0.89 -68.29 -52.71zm1143.9 1081.18l171.3 -90.61 0 -75.27 -171.3 97.34 0 68.54zm-466.9 60.86l0 -265.33 -181.72 0 0 300.97 260.71 224.63 0 598.44 192.12 -175.38 0 -441.09 -271.11 -242.24zm40.31 92.77c21.76,0 39.41,17.11 39.41,38.22 0,21.1 -17.65,38.21 -39.41,38.21 -21.77,0 -39.41,-17.11 -39.41,-38.21 0,-21.11 17.64,-38.22 39.41,-38.22zm826.5 233.37l-101.43 88.85 39.32 46.7 -22.79 19.19 -38.95 -46.26 -92.68 81.19 39.72 47.17 -22.79 19.19 -39.35 -46.73 -84.46 73.98 38.98 46.29 -22.79 19.19 -38.6 -45.84 -84.47 73.98 39.85 47.33 -22.79 19.19 -39.47 -46.89 -152.6 133.67 802.09 0.2 -0.54 -702.3 -173.83 152.27 39.1 46.44 -22.78 19.19 -38.74 -46zm-242.32 432.06l333.09 -291.76 0.22 291.85 -333.31 -0.09zm-2376.14 254.16l844.13 0 0 304.18 -844.13 0 0 -304.18zm982.03 0l844.13 0 0 304.18 -844.13 0 0 -304.18zm986.61 0.74l844.13 0 0 304.18 -844.13 0 0 -304.18zm760.79 -2174.24l-39.77 -46.53 0 201.39 39.77 0 0 -154.86z"/>
   <path class="fil1" d="M1848.12 -0.01l616.64 458.55 616.65 458.54 -1233.29 0 -1233.29 0 616.64 -458.54 616.65 -458.55zm-1390.54 3286.44l327.12 0 0 -97.75 -101.54 0 -0.49 0.42 -60.93 52.67 -60.93 -52.67 -0.5 -0.42 -102.73 0 0 97.75zm85.92 111.7l89.5 -81.12 -93.31 0 3.81 81.12zm155.63 -72.69l-152.55 138.27 3.04 64.65 143.3 -129.9 2.76 1.94 3.45 -74.96zm-6.51 141.68l-139.92 126.82 3.04 64.64 133.65 -121.14 3.23 -70.32zm-6.52 141.68l-127.28 115.37 3.04 64.64 121.02 -109.69 3.22 -70.32zm-6.51 141.67l-95.94 86.97 37.36 54.76 56.02 -85.9 2.56 -55.83zm1113.64 -2061.23l436.46 0 0 118.13 -436.46 0 0 -118.13zm510.93 -152.81l123.64 0 0 445.57 -123.64 0 0 -445.57zm960.11 1361.38l-387.28 0 -259.18 136.71 0 234.44 141.67 115.83 504.79 -414.37 0 -72.61zm-171.45 -348.78l0.42 -67.77 171.03 -85 0 -258.35 -229.85 0 -156.25 212.69 -0.01 460.35 386.11 0 0 -134.79 -171.45 85.21 0.42 -67.77 171.03 -85 0 -37.27 -171.45 85.22 0.42 -67.78 171.03 -85 0 -39.95 -171.45 85.21zm-504.24 -18.05c0,24.52 -24.87,44.58 -55.24,44.58l-117.53 0c-30.38,0 -55.24,-20.06 -55.24,-44.58l0 -171.97c0,-24.52 24.86,-44.59 55.24,-44.59l117.53 0c30.38,0 55.24,20.07 55.24,44.59l0 171.97zm-282.92 -264.03c0,128.64 -0.41,255.57 -0.76,383.51l181.2 0 0 -0.21 133.34 0c55.17,0 100.32,-36.44 100.32,-80.97l0 -302.33c0,-44.53 -45.14,-80.97 -100.32,-80.97l-213.45 0c-55.19,0 -100.33,36.44 -100.33,80.97zm-229.05 -91.36c38.53,0 70.06,25.44 70.06,56.54l0 284.85c0,31.1 -31.53,56.54 -70.06,56.54l-149.06 0c-38.53,0 -70.06,-25.44 -70.06,-56.54l0 -284.85c0,-31.1 31.53,-56.54 70.06,-56.54l149.06 0zm-55.26 474.87l181.72 0 0 -90.87 0 -101.48 0 -356.32c0,-49.98 -50.66,-90.87 -112.59,-90.87l-239.56 0c-61.93,0 -112.6,40.89 -112.6,90.87l0 457.8c0,49.97 50.67,90.87 112.6,90.87l170.43 0zm-838.96 1045.37l0 -240.9 473.69 0 0 240.9 -473.69 0zm560.09 -355.87l-777.57 0 0 533.8 777.57 0 0 -533.8zm-19.04 -2258.99c-118.14,0 -236.28,0 -354.43,0 -81.84,108.87 -89.8,235.08 0,351.14 26.5,34.23 82.28,79.86 131.09,65.54l223.34 -65.54 0 -351.14zm1119.7 78.54l-138.93 200.28 -166.06 0 119.03 -200.28 185.96 0zm-806.12 200.28l119.03 -200.28 197.33 0 -119.03 200.28 -197.33 0zm61.62 -200.28l-119.04 200.28 -194.87 0 -0.01 72.45 1115.87 0 217.88 -198.08 -151.5 -153.19 -1182.16 0 -0.02 78.54 313.85 0zm193.12 200.28l119.04 -200.28 188.98 0 -119.04 200.28 -188.98 0zm-1507.06 1715.97l0.05 -1490.67 -326.89 0c0,463.71 -0.29,1027.39 -0.29,1490.71 0,0 327.13,-0.04 327.13,-0.04z"/>
  </g>
 </g>
</svg>
