<?xml version="1.0" encoding="UTF-8"?>
<!DOCTYPE svg PUBLIC "-//W3C//DTD SVG 1.1//EN" "http://www.w3.org/Graphics/SVG/1.1/DTD/svg11.dtd">
<!-- Creator: CorelDRAW -->
<svg xmlns="http://www.w3.org/2000/svg" xml:space="preserve" width="120mm" height="39mm" version="1.1" style="shape-rendering:geometricPrecision; text-rendering:geometricPrecision; image-rendering:optimizeQuality; fill-rule:evenodd; clip-rule:evenodd"
viewBox="0 0 12000 3900"
 xmlns:xlink="http://www.w3.org/1999/xlink"
 xmlns:xodm="http://www.corel.com/coreldraw/odm/2003">
 <defs>
  <style type="text/css">
   <![CDATA[
    .str0 {stroke:#332E30;stroke-width:7.62;stroke-miterlimit:22.9256}
    .fil2 {fill:#1B3864}
    .fil1 {fill:#E4641D}
    .fil0 {fill:#332E30;fill-rule:nonzero}
   ]]>
  </style>
 </defs>
 <g id="Слой_x0020_1">
  <metadata id="CorelCorpID_0Corel-Layer"/>
  <g id="_105553158260480">
   <g>
    <path class="fil0 str0" d="M2399.6 3182.61l0 -414.39 33.16 0 181.41 366.51 184.18 -366.51 27.63 0 0 414.39 -29.47 0 0 -360.07 -186.94 371.13 -184.18 -374.81 0 363.75 -25.79 0zm532.27 -209.04c0,-58.32 21.49,-108.83 64.47,-151.49 42.97,-42.67 94.71,-64 155.17,-64 60.47,0 112.05,21.33 154.72,64 42.66,42.66 64,93.33 64,151.95 0,58.63 -20.87,109.74 -62.62,153.33 -41.75,43.59 -92.4,65.38 -151.96,65.38l-9.2 0c-57.72,0 -107.9,-21.94 -150.56,-65.83 -42.67,-43.91 -64.02,-95.01 -64.02,-153.34zm408.89 2.3c0,-51.88 -18.57,-96.84 -55.71,-134.91 -37.15,-38.06 -81.5,-57.09 -133.08,-57.09 -51.56,0 -96.23,19.19 -133.99,57.55 -37.76,38.37 -56.64,83.35 -56.64,134.91 0,51.58 18.88,96.23 56.64,133.99 37.76,37.76 82.57,56.64 134.46,56.64 51.87,0 96.23,-18.88 133.06,-56.64 36.84,-37.76 55.26,-82.57 55.26,-134.45zm135.36 390.92l0 -598.57 29.47 0 0 101.29c16.58,-33.77 42.52,-60.78 77.81,-81.05 35.31,-20.24 71.98,-30.38 110.05,-30.38 60.79,0 112.51,21.33 155.18,64 42.66,42.66 63.99,93.78 63.99,153.34 0,59.54 -21.33,110.65 -63.99,153.32 -42.67,42.67 -94.39,64 -155.18,64 -36.82,0 -72.75,-9.97 -107.73,-29.92 -35,-19.95 -61.7,-46.81 -80.13,-80.58l0 284.55 -29.47 0zm27.63 -390.46c0,51.58 18.88,96.23 56.63,133.99 37.76,37.76 82.58,56.64 134.46,56.64 51.87,0 96.23,-18.88 133.07,-56.64 36.83,-37.76 55.25,-82.57 55.25,-134.45 0,-51.88 -18.57,-96.84 -55.71,-134.91 -37.14,-38.06 -81.5,-57.09 -133.08,-57.09 -51.56,0 -96.23,19.19 -133.99,57.55 -37.75,38.37 -56.63,83.35 -56.63,134.91zm482.55 -2.76c0,-58.32 21.49,-108.83 64.46,-151.49 42.98,-42.67 94.71,-64 155.17,-64 60.48,0 112.06,21.33 154.72,64 42.67,42.66 64,93.33 64,151.95 0,58.63 -20.87,109.74 -62.62,153.33 -41.75,43.59 -92.39,65.38 -151.95,65.38l-9.21 0c-57.71,0 -107.89,-21.94 -150.56,-65.83 -42.67,-43.91 -64.01,-95.01 -64.01,-153.34zm408.88 2.3c0,-51.88 -18.57,-96.84 -55.71,-134.91 -37.15,-38.06 -81.49,-57.09 -133.07,-57.09 -51.57,0 -96.23,19.19 -133.99,57.55 -37.76,38.37 -56.64,83.35 -56.64,134.91 0,51.58 18.88,96.23 56.64,133.99 37.76,37.76 82.57,56.64 134.45,56.64 51.88,0 96.24,-18.88 133.07,-56.64 36.84,-37.76 55.25,-82.57 55.25,-134.45zm208.11 -215.03c26.39,0 48.35,8.45 65.85,25.33 17.49,16.89 26.24,35.3 26.24,55.25 0,19.95 -4.15,36.38 -12.43,49.27 -8.29,12.89 -17.96,22.11 -29.01,27.62 27.63,7.37 51.26,24.1 70.9,50.2 19.66,26.08 29.47,56.33 29.47,90.7 0,34.39 -14.27,65.54 -42.82,93.47 -28.54,27.93 -62.46,41.91 -101.76,41.91 -52.18,0 -92.39,-20.87 -120.63,-62.62l0 -55.26c9.2,27.62 24.24,50.04 45.13,67.23 20.86,17.19 46.34,25.79 76.43,25.79 30.08,0 56.63,-11.68 79.65,-35 23.03,-23.33 34.53,-50.8 34.53,-82.43 0,-31.61 -11.5,-59.23 -34.53,-82.88 -23.02,-23.63 -49.88,-35.44 -80.58,-35.44l-22.09 0 0 -24.88 18.41 0c16.58,0 30.7,-6.13 42.36,-18.41 11.67,-12.28 17.5,-26.71 17.5,-43.29 0,-16.57 -5.83,-30.99 -17.5,-43.27 -11.66,-12.28 -25.78,-18.42 -42.36,-18.42 -34.37,0 -58.32,21.79 -71.82,65.39l0 -58.03c19.64,-21.48 42.66,-32.23 69.06,-32.23zm224.7 212.73c0,-58.32 21.48,-108.83 64.46,-151.49 42.98,-42.67 94.71,-64 155.17,-64 60.48,0 112.05,21.33 154.72,64 42.67,42.66 64,93.33 64,151.95 0,58.63 -20.87,109.74 -62.62,153.33 -41.75,43.59 -92.39,65.38 -151.95,65.38l-9.21 0c-57.71,0 -107.89,-21.94 -150.56,-65.83 -42.67,-43.91 -64.01,-95.01 -64.01,-153.34zm408.88 2.3c0,-51.88 -18.57,-96.84 -55.71,-134.91 -37.15,-38.06 -81.5,-57.09 -133.07,-57.09 -51.57,0 -96.24,19.19 -134,57.55 -37.76,38.37 -56.63,83.35 -56.63,134.91 0,51.58 18.87,96.23 56.63,133.99 37.76,37.76 82.57,56.64 134.46,56.64 51.88,0 96.23,-18.88 133.06,-56.64 36.85,-37.76 55.26,-82.57 55.26,-134.45zm135.36 -207.65l77.37 0c23.94,0 43.74,8.13 59.39,24.39 15.66,16.27 23.49,37.91 23.49,64.93 0,27.01 -11.37,47.88 -34.08,62.62 24.56,7.37 45.27,23.33 62.17,47.88 16.87,24.56 25.32,53.12 25.32,85.64 0,32.55 -13.2,62.17 -39.61,88.88 -26.39,26.7 -58.63,40.05 -96.68,40.05l-77.37 0 0 -414.39zm79.2 167.59l-49.73 0 0 221.95 49.73 0c29.47,0 54.79,-10.9 75.97,-32.7 21.19,-21.8 31.78,-48.04 31.78,-78.74 0,-30.69 -10.59,-56.79 -31.78,-78.28 -21.18,-21.49 -46.5,-32.23 -75.97,-32.23zm-0.92 -142.74l-48.81 0 0 117.88 50.66 0c14.74,0 27.62,-5.68 38.68,-17.03 11.04,-11.37 16.57,-24.87 16.57,-40.53 0,-15.65 -5.83,-29.62 -17.5,-41.9 -11.66,-12.28 -24.86,-18.42 -39.6,-18.42z"/>
    <path class="fil0" d="M2664.1 1888.7l0 -192.37 -20.09 -15.8 -22.98 0 -21.53 15.8 0 646.01 21.53 15.78 22.98 0 20.09 -15.78 0 -264.15 213.9 0 0 443.74 -493.84 -0.15 0.28 -1004.77 493.53 -0.41 0.03 372.1 -213.9 0zm277.08 -208.17l0 -163.65 488.1 0 0 163.65 -136.39 0 0 841.25 -215.34 0 0 -841.25 -136.37 0zm1050.85 422.06l-86.14 78.95 -193.8 0 0 340.24 -215.34 0 0 -1004.9 409.14 0 86.14 78.95 0 506.76zm-279.94 -84.7l44.51 0 20.09 -15.79 0 -297.16 -20.09 -24.41 -44.51 0 0 337.36zm848.42 -422.06l0 847 -86.13 78.95 -324.43 0 -84.71 -78.95 0 -847 84.71 -78.95 324.43 0 86.13 78.95zm-215.33 746.51l0 -646.01 -20.09 -15.8 -22.98 0 -21.52 15.8 0 646.01 21.52 15.78 22.98 0 20.09 -15.78zm496.71 -825.46l0 414.88 96.18 -414.88 198.11 0 0 1004.9 -200.99 0 0 -414.89 -97.61 414.89 -196.68 0 0 -1004.9 200.99 0zm358.89 163.65l0 -163.65 488.1 0 0 163.65 -136.39 0 0 841.25 -215.34 0 0 -841.25 -136.37 0zm770.92 1.44l0 225.37 123.46 0 0 163.67 -123.46 0 0 287.11 136.37 0 0 163.66 -351.71 0 0 -1003.46 351.71 0 0 163.65 -136.37 0zm496.71 -1.44l-44.51 0 -20.09 44.51 0 796.74 -215.34 0 0 -825.45 86.15 -179.45 409.13 0 0 1004.9 -215.34 0 0 -841.25zm791.01 762.3l-86.14 78.95 -409.14 0 0 -1004.9 215.34 0 0 340.24 193.8 0 86.14 78.94 0 506.77zm-279.94 -84.71l44.51 0 20.09 -24.4 0 -297.17 -20.09 -15.79 -44.51 0 0 337.36zm846.98 -841.24l0 1004.9 -213.9 0 0 -450.77 -66.04 0 0 450.77 -213.89 0 0 -1004.9 213.89 0 0 390.46 66.04 0 0 -390.46 213.9 0zm574.24 925.95l-86.14 78.95 -409.13 0 0 -1004.9 215.34 0 0 340.24 193.79 0 86.14 78.94 0 506.77zm-279.93 -84.71l44.51 0 20.09 -24.4 0 -297.17 -20.09 -15.79 -44.51 0 0 337.36zm529.73 163.66l-213.9 0 0 -1003.46 213.9 0 0 1003.46zm291.43 -1004.9l0 414.88 96.18 -414.88 198.11 0 0 1004.9 -200.99 0 0 -414.89 -97.61 414.89 -196.68 0 0 -1004.9 200.99 0zm1767.34 78.95l0 343.11 -47.37 45.93 47.37 47.37 0 410.59 -86.14 78.95 -409.13 0 0 -1004.9 409.13 0 86.14 78.95zm-279.94 311.51l44.51 0 20.09 -15.78 0 -186.62 -20.09 -24.41 -44.51 0 0 226.81zm64.6 435l0 -248.36 -20.09 -22.97 -44.51 0 0 287.11 44.51 0 20.09 -15.78zm791.01 -746.51l0 847 -86.14 78.95 -324.43 0 -84.71 -78.95 0 -847 84.71 -78.95 324.43 0 86.14 78.95zm-215.34 746.51l0 -646.01 -20.09 -15.8 -22.98 0 -21.53 15.8 0 646.01 21.53 15.78 22.98 0 20.09 -15.78zm791.01 -239.75l-86.14 78.95 -193.8 0 0 340.24 -215.34 0 0 -1004.9 409.14 0 86.14 78.95 0 506.76zm-279.94 -84.7l44.51 0 20.09 -15.79 0 -297.16 -20.09 -24.41 -44.51 0 0 337.36zm-1398.07 545l-147.12 0 -1.2 -42.3 -274 0 -0.93 42.3 -160.83 0 0 -222.21 40.19 0 0 -644.35 86.1 -179.38 409 0 0 823.73 48.79 0 0 222.21zm-264.05 -222.21l0 -660.13 -44.49 0 -20.09 44.49 0 615.64 64.58 0z"/>
    <g>
     <path class="fil1" d="M1358.2 2434.87l121.45 109.57 0 338.71 -121.45 -97.67 0 -350.61zm294.94 -112.23l0 -149.27 -114.67 0c-0.11,54.52 -0.19,109.41 -0.19,165.04l49.94 45.92 64.92 -61.69zm372.6 -565.48l100.75 0 -12.24 -23.78 -72.03 0 -16.48 23.78zm41.43 -208.67l25.15 29.42 0 -31.99 -25.15 -29.41 0 31.98zm0 -61.2l25.15 29.42 0 -35.71 -25.15 -29.41 0 35.7zm0 -64.91l25.15 29.41 0 -41.88 -12.19 -12.64 -12.96 12.64 0 12.47zm-419.8 2.06l340.65 0 0 17.86 -175.14 14.61 175.14 25.97 0 187.5 -340.65 0 0 -245.94zm214.87 -775.85l179.45 0 0 270.03 -179.45 -130.93 0 -139.1zm586.52 679.85l-434.73 0 118.67 -112.86 -72.96 -81 138.24 0 250.78 193.86zm-2367.13 -1.09l724.48 0 0 -229.2 -431.55 0 -292.93 229.2zm964.67 291.84l-85.6 -66.08 85.5 -66.19 41.31 -31.98 -241.5 0.16 -151.5 76.22 0.66 920.54 394.03 0 0.84 -0.65 0 -0.56 -43.17 -33.33 -85.6 -66.08 85.5 -66.19 43.12 -33.38 0 -0.56 -43.16 -33.32 -85.61 -66.08 85.51 -66.19 43.12 -33.38 0 -0.56 -43.17 -33.33 -85.6 -66.08 85.51 -66.18 43.12 -33.38 0 -0.56 -43.17 -33.32 -85.6 -66.08 85.51 -66.19 43.12 -33.38 0 -0.56 -43.17 -33.33zm723.07 683.44l108.29 -57.28 0 -47.58 -108.29 61.53 0 43.33zm-295.12 38.46l0 -167.72 -114.87 0 0 190.26 164.8 141.99 0 378.29 121.43 -110.86 0 -278.83 -171.36 -153.13zm25.47 58.65c13.76,0 24.92,10.82 24.92,24.16 0,13.34 -11.16,24.15 -24.92,24.15 -13.75,0 -24.91,-10.81 -24.91,-24.15 0,-13.34 11.16,-24.16 24.91,-24.16zm522.45 147.52l-64.12 56.16 24.86 29.52 -14.41 12.13 -24.62 -29.24 -58.59 51.32 25.11 29.82 -14.4 12.13 -24.88 -29.54 -53.39 46.77 24.64 29.26 -14.4 12.13 -24.41 -28.98 -53.39 46.77 25.19 29.91 -14.4 12.13 -24.96 -29.63 -96.46 84.49 507.03 0.13 -0.34 -443.95 -109.89 96.26 24.72 29.35 -14.41 12.13 -24.48 -29.07zm-153.18 273.11l210.56 -184.43 0.14 184.49 -210.7 -0.06zm-1502.01 160.67l533.6 0 0 192.28 -533.6 0 0 -192.28zm620.77 0l533.59 0 0 192.28 -533.59 0 0 -192.28zm623.65 0.46l533.59 0 0 192.28 -533.59 0 0 -192.28zm480.92 -1374.38l-25.15 -29.41 0 127.3 25.15 0 0 -97.89z"/>
     <path class="fil2" d="M1249.87 433.74l389.79 289.86 389.8 289.86 -779.59 0 -779.59 0 389.79 -289.86 389.8 -289.86zm-878.99 2077.43l206.78 0 0 -61.79 -64.19 0 -0.31 0.27 -38.51 33.29 -38.52 -33.29 -0.31 -0.27 -64.94 0 0 61.79zm54.31 70.61l56.57 -51.28 -58.98 0 2.41 51.28zm98.38 -45.95l-96.43 87.4 1.92 40.87 90.58 -82.11 1.75 1.23 2.18 -47.39zm-4.12 89.56l-88.44 80.17 1.92 40.86 84.48 -76.58 2.04 -44.45zm-4.12 89.56l-80.46 72.93 1.92 40.86 76.5 -69.34 2.04 -44.45zm-4.11 89.55l-60.65 54.98 23.62 34.61 35.41 -54.3 1.62 -35.29zm703.95 -1302.95l275.9 0 0 74.68 -275.9 0 0 -74.68zm322.97 -96.59l78.15 0 0 281.66 -78.15 0 0 -281.66zm606.9 860.55l-244.8 0 -163.84 86.42 0 148.2 89.56 73.22 319.08 -261.94 0 -45.9zm-108.37 -220.47l0.26 -42.84 108.11 -53.73 0 -163.3 -145.28 0 -98.78 134.44 0 291 244.06 0 0 -85.21 -108.37 53.87 0.26 -42.84 108.11 -53.73 0 -23.56 -108.37 53.86 0.26 -42.84 108.11 -53.73 0 -25.25 -108.37 53.86zm-318.75 -11.41c0,15.5 -15.71,28.18 -34.92,28.18l-74.29 0c-19.2,0 -34.92,-12.68 -34.92,-28.18l0 -108.71c0,-15.5 15.72,-28.17 34.92,-28.17l74.29 0c19.21,0 34.92,12.67 34.92,28.17l0 108.71zm-178.83 -166.89c0,81.31 -0.25,161.55 -0.48,242.42l114.53 0 0 -0.14 84.29 0c34.88,0 63.42,-23.03 63.42,-51.18l0 -191.1c0,-28.15 -28.54,-51.18 -63.42,-51.18l-134.93 0c-34.88,0 -63.41,23.03 -63.41,51.18zm-144.78 -57.75c24.35,0 44.28,16.08 44.28,35.74l0 180.05c0,19.66 -19.93,35.74 -44.28,35.74l-94.23 0c-24.35,0 -44.28,-16.08 -44.28,-35.74l0 -180.05c0,-19.66 19.93,-35.74 44.28,-35.74l94.23 0zm-34.93 300.17l114.87 0 0 -57.45 0 -64.14 0 -225.23c0,-31.59 -32.03,-57.44 -71.18,-57.44l-151.43 0c-39.14,0 -71.17,25.85 -71.17,57.44l0 289.37c0,31.6 32.03,57.45 71.17,57.45l107.74 0zm-530.33 660.8l0 -152.28 299.43 0 0 152.28 -299.43 0zm354.04 -224.96l-491.52 0 0 337.44 491.52 0 0 -337.44zm-12.03 -1427.95c-74.68,0 -149.36,0 -224.04,0 -51.74,68.83 -56.77,148.6 0,221.96 16.74,21.65 52.01,50.49 82.86,41.43l141.18 -41.43 0 -221.96zm707.78 49.65l-87.82 126.6 -104.97 0 75.24 -126.6 117.55 0zm-509.56 126.6l75.24 -126.6 124.73 0 -75.23 126.6 -124.74 0zm38.95 -126.6l-75.24 126.6 -123.19 0 -0.01 45.8 705.37 0 137.72 -125.21 -95.77 -96.84 -747.26 0 -0.01 49.65 198.39 0zm122.08 126.6l75.23 -126.6 119.46 0 -75.24 126.6 -119.45 0zm-952.65 1084.7l0.03 -942.28 -206.64 0c0,293.12 -0.18,649.43 -0.18,942.3 0,0 206.79,-0.02 206.79,-0.02z"/>
    </g>
   </g>
  </g>
 </g>
</svg>
